<?xml version="1.0" encoding="utf-8"?>
<!-- Generator: Adobe Illustrator 25.0.0, SVG Export Plug-In . SVG Version: 6.00 Build 0)  -->
<svg version="1.1" id="Camada_1" xmlns="http://www.w3.org/2000/svg" xmlns:xlink="http://www.w3.org/1999/xlink" x="0px" y="0px"
	 viewBox="0 0 51.2 45" style="enable-background:new 0 0 51.2 45;" xml:space="preserve">
<style type="text/css">
	.st0{fill:#FFFFFF;}
</style>
<path class="st0" d="M40,21.8c0-0.7-0.1-1.3-0.2-2c0-0.1,0-0.1,0-0.2c-0.4-2.3-1.3-4.4-2.7-6.3c-0.8-1.1-1.6-2-2.6-2.9
	c-0.1-0.1-0.1-0.1-0.2-0.2c-2.8-2.3-6-3.6-9.7-3.7c-1,0-2,0-3,0.2c-0.1,0-0.2,0-0.3,0c-2.1,0.4-4.2,1.1-6,2.4
	c-3.9,2.6-6.3,6.2-7.1,10.8c-0.5,3.1-0.1,6.1,1.2,9c3,6.6,10.2,10.9,18,9.1c6.2-1.4,10.3-5.4,12.1-11.5C40,25,40.1,23.4,40,21.8z
	 M38.4,26.2c-1.7,5.5-5.2,9.2-10.8,10.6c-6.2,1.5-11.4-0.5-15.3-5.5c-2-2.6-3.1-5.6-3-8.9c0.1-4.1,1.7-7.6,4.6-10.5
	c2-1.9,4.4-3.2,7.1-3.8c0,0,0.1,0,0.1,0c0,0,0,0,0,0c0,0,0,0,0,0c0.7-0.1,1.3-0.2,2-0.2c3.9-0.2,7.3,1,10.2,3.4
	c1,0.8,1.8,1.7,2.5,2.7c1.5,2.1,2.5,4.3,2.8,6.9c0.1,0.9,0.1,1.8,0.1,2.8h0c0,0,0,0,0,0c0,0,0,0,0,0C38.8,24.4,38.6,25.3,38.4,26.2z
	"/>
<path class="st0" d="M36.5,22.3c-4.1-4.1-8.2-8.1-12.2-12.2c-0.2-0.2-0.2-0.2-0.4,0c-3,3-6,6-9,8.9c-1.1,1.1-2.2,2.1-3.2,3.2
	c-0.1,0.1-0.2,0.2,0,0.3c0.2,0.2,0.3,0.3,0.5,0.5c0.1,0.1,0.1,0.2,0.2,0.2c3.8,3.8,7.7,7.6,11.5,11.4c0.2,0.2,0.3,0.2,0.5,0
	c2.2-2.2,4.4-4.4,6.6-6.6c0.9-0.9,1.8-1.8,2.7-2.7c1-1,2-1.9,3-2.9C36.7,22.4,36.6,22.4,36.5,22.3z M24.6,32.5v-2.6
	c0-0.9,0-1.9,0-2.8v0c0-0.5,0-1,0-1.4v0c0-0.5,0-1.1,0-1.6v0c0-0.2,0-0.4,0-0.6v0c0-0.1,0-0.2,0.2-0.2c2,0,4,0,6,0h0c1,0,2,0,3,0
	c0,0,0.1,0,0.2,0C30.9,26.3,27.8,29.4,24.6,32.5z M24.6,12.6c0.1,0,0.2,0.1,0.3,0.2c1,1,2,2,3.1,3c0.1,0.1,0.1,0.1,0.2,0.2
	c0,0,0.1,0.1,0.1,0.1c0.1,0.2,0.3,0.3,0.4,0.4c0,0,0.1,0.1,0.1,0.1c0,0.1,0.1,0.1,0.1,0.1c0.5,0.5,0.9,0.9,1.4,1.4c1,1,2,2,3,3
	c0,0.1,0.1,0.1,0.1,0.1c0,0.1,0.1,0.1,0.1,0.1c0,0.1,0.1,0.1,0.1,0.1c0,0.1,0.1,0.1,0.1,0.1c0.1,0.1,0.1,0.2,0.2,0.2
	c-0.1,0.1-0.1,0-0.2,0c-2.9,0-5.9,0-8.8,0c-0.2,0-0.3,0-0.3-0.3c0-1.5,0-3,0-4.5v0c0-0.2,0-0.4,0-0.6c0-0.2,0-0.4,0-0.6v0
	c0-1,0-2.1,0-3.1C24.6,12.7,24.6,12.6,24.6,12.6z M23.3,12.7c0,0.1,0,0.1,0,0.2c0,0,0,0.1,0,0.1v0.6c0,0.1,0,0.2,0,0.2
	c0,2.5,0,5.1,0,7.6c0,0,0,0.1,0,0.1c0,0.1-0.1,0.1-0.2,0.1c-2.9,0-5.9,0-8.8,0h-0.2C17.2,18.7,20.2,15.7,23.3,12.7z M23.4,32.3
	c0,0,0,0,0,0.1c-3.1-3-6.2-6.1-9.2-9.2h1.6c2.5,0,4.9,0,7.4,0c0.2,0,0.3,0,0.3,0.2C23.4,26.3,23.4,29.3,23.4,32.3z"/>
<path class="st0" d="M19.6,32c-0.6,0-1.2,0-1.8,0c-1.9,0-3.2-1.4-3.2-3.2c0-0.6,0-1.2,0-1.8c0-0.1,0-0.2-0.1-0.3
	c-0.4-0.3-0.7-0.7-1.1-1.1c0,1.2,0,2.3,0,3.4c0.2,2.3,1.9,4,4.2,4.1c1.1,0,2.1,0,3.2,0c0,0,0.1,0,0.1-0.1c-0.3-0.3-0.7-0.6-1-1
	C19.8,32.1,19.7,32,19.6,32z"/>
<path class="st0" d="M28.5,13c0.6,0,1.2,0,1.8,0c1.7,0,3.1,1.3,3.3,3c0.1,0.7,0,1.3,0,2c0,0.1,0,0.2,0,0.3c0.3,0.4,0.7,0.8,1.1,1.1
	c0-1.2,0.1-2.5-0.1-3.7c-0.3-2-1.8-3.5-3.7-3.8c-1.3-0.2-2.5,0-3.8-0.1c0.3,0.3,0.6,0.7,0.9,1C28.2,12.9,28.3,13,28.5,13z"/>
<path class="st0" d="M14.4,18.3c0.1-0.1,0.1-0.2,0.1-0.4c0-0.5,0-1.1,0-1.6c0-1.9,1.4-3.3,3.3-3.4c0.6,0,1.2,0,1.7,0
	c0.1,0,0.2,0,0.2,0c0.4-0.4,0.7-0.7,1.1-1.1c-1.1,0-2.2,0-3.3,0c-2.2,0.1-3.9,1.8-4.2,4c-0.1,1.2,0,2.3,0,3.5
	C13.7,19,14.1,18.7,14.4,18.3z"/>
<path class="st0" d="M34.7,27.5c0-0.6,0-1.2,0-1.9c-0.4,0.4-0.7,0.7-1,1c-0.2,0.1-0.2,0.2-0.2,0.4c0,0.8,0.1,1.5,0,2.3
	C33.3,30.8,32,32,30.5,32c-0.7,0-1.3,0-2,0c-0.1,0-0.2,0-0.3,0.1c-0.3,0.4-0.7,0.7-1.1,1.1c1.3,0,2.5,0,3.7-0.1c0.2,0,0.3,0,0.5-0.1
	c1.8-0.4,3.3-2.1,3.3-3.9c0,0,0-0.1,0-0.1v0C34.8,28.5,34.7,28,34.7,27.5z"/>
</svg>
